<svg width="74" height="106" viewBox="0 0 74 106" fill="none" xmlns="http://www.w3.org/2000/svg">
<path d="M73.22 52.9C73.2181 46.6166 71.5978 40.4396 68.5151 34.9643C65.4325 29.4891 60.9914 24.9002 55.6199 21.64L54.8799 19.07H54.6299C54.7266 19.0081 54.8201 18.9414 54.91 18.87C55.3757 18.4661 55.6631 17.8947 55.71 17.28C55.7397 16.9169 55.6817 16.552 55.5407 16.2161C55.3997 15.8802 55.1799 15.5831 54.9 15.35L57.17 10.69L54.6199 10.5L50.6199 14.58L42.86 14.02C46.34 5.40001 48.24 -0.309989 46.53 0.0200108C44.82 0.350011 45.22 1.81 35.06 12.73L34.52 13.4L22.31 12.53C21.692 12.4884 21.0822 12.6893 20.61 13.09C20.1464 13.504 19.86 14.0805 19.81 14.7C19.7741 15.3154 19.9815 15.9202 20.3874 16.3841C20.7933 16.848 21.3653 17.1338 21.9799 17.18L27.12 17.55C19.5928 19.5801 12.9103 23.9599 8.04547 30.0519C3.18062 36.1438 0.387483 43.6297 0.0728146 51.4194C-0.241853 59.2091 1.93836 66.8959 6.29599 73.3603C10.6536 79.8248 16.9611 84.7294 24.3 87.36C24.0215 87.7477 23.8712 88.2127 23.87 88.69C23.8662 89.0474 23.9488 89.4004 24.1107 89.719C24.2727 90.0376 24.5091 90.3124 24.8 90.52L22.88 95.26H25.4L29.11 90.98H36.77C33.93 99.7 32.46 105.44 34.11 104.98C35.76 104.52 35.2799 103.13 44.5399 91.71L45.02 91.01H57.08C57.6929 91.0081 58.2811 90.7678 58.72 90.34C59.0377 90.0171 59.2535 89.6079 59.3405 89.1633C59.4274 88.7187 59.3817 88.2583 59.209 87.8395C59.0364 87.4207 58.7444 87.0618 58.3694 86.8077C57.9944 86.5535 57.553 86.4152 57.1 86.41H51.3C57.8134 83.5567 63.3547 78.8683 67.2474 72.9174C71.14 66.9666 73.2154 60.0109 73.22 52.9ZM46.4 86.44H44.61L44.34 86.06C35.12 74.59 35.61 73.24 33.96 72.75C32.31 72.26 33.73 77.89 36.47 86.42H28.74L25.28 82.15L22.7599 82.08L24.02 85.51C16.6181 82.6446 10.4121 77.3451 6.42279 70.4834C2.43349 63.6217 0.89857 55.6064 2.07056 47.7563C3.24254 39.9062 7.05164 32.6889 12.8712 27.2916C18.6907 21.8943 26.174 18.6385 34.09 18.06H34.5099L34.7599 18.47C43.2899 30.71 42.7 32.05 44.34 32.65C45.98 33.25 44.93 27.48 42.75 18.65L44.0399 18.74C46.8985 19.358 49.6673 20.3358 52.28 21.65L53.77 23.77L56.29 24.02C61.7617 27.7501 66.0607 32.9584 68.686 39.0379C71.3114 45.1175 72.1549 51.8179 71.1185 58.3585C70.082 64.899 67.2081 71.0104 62.8318 75.9804C58.4554 80.9504 52.7568 84.5744 46.4 86.43V86.44Z" fill="white"/>
</svg>
