<svg width="97" height="78" viewBox="0 0 97 78" fill="none" xmlns="http://www.w3.org/2000/svg">
<g clip-path="url(#clip0_203_6)">
<path d="M15.08 76.79H11.36V67.03L8.68 73.33H6.16L3.48 67.03V76.79H0V62.08H4.26L7.52 69.34L10.77 62.08H15.08V76.79ZM31.51 69.43C31.6238 71.4798 30.9393 73.4941 29.6 75.05C28.9217 75.7348 28.1054 76.2673 27.2054 76.6121C26.3053 76.957 25.3422 77.1062 24.38 77.05C23.4019 77.1195 22.4205 76.9737 21.5048 76.623C20.5891 76.2722 19.7614 75.7251 19.08 75.02C17.8482 73.415 17.1805 71.4483 17.1805 69.425C17.1805 67.4018 17.8482 65.4351 19.08 63.83C20.4977 62.5099 22.3629 61.776 24.3 61.776C26.2371 61.776 28.1023 62.5099 29.52 63.83C30.8577 65.3829 31.5423 67.3935 31.43 69.44L31.51 69.43ZM27.7 69.43C27.7153 68.6777 27.6244 67.927 27.43 67.2C27.284 66.654 27.04 66.1389 26.71 65.68C26.4274 65.3077 26.0561 65.012 25.63 64.82C25.2407 64.6426 24.8179 64.5506 24.39 64.55C23.9639 64.5478 23.5419 64.6329 23.15 64.8C22.7341 64.9996 22.371 65.2942 22.09 65.66C21.7474 66.1141 21.4961 66.6303 21.35 67.18C20.9899 68.6618 20.9899 70.2082 21.35 71.69C21.5023 72.2313 21.7532 72.7398 22.09 73.19C22.3636 73.5694 22.7328 73.8695 23.16 74.06C23.553 74.2371 23.979 74.3291 24.41 74.33C24.8495 74.3275 25.283 74.2285 25.68 74.04C26.1016 73.8449 26.4664 73.5455 26.74 73.17C27.0656 72.7144 27.3124 72.2074 27.47 71.67C27.6586 70.9389 27.7428 70.1847 27.72 69.43H27.7ZM45.51 72.1C45.5171 72.7883 45.3773 73.4701 45.1 74.1C44.8298 74.6604 44.4326 75.15 43.94 75.53C43.3951 75.9873 42.762 76.3277 42.08 76.53C41.2993 76.7292 40.4956 76.8234 39.69 76.81H33.65V62.08H44.36V64.89H37.36V67.6H39.79C40.5841 67.5913 41.3774 67.6549 42.16 67.79C42.8471 67.9142 43.4929 68.2062 44.04 68.64C44.5375 69.0211 44.9185 69.5337 45.14 70.12C45.3862 70.7574 45.5051 71.4369 45.49 72.12L45.51 72.1ZM41.71 72.2C41.7101 71.9677 41.6833 71.7361 41.63 71.51C41.569 71.2824 41.4481 71.0752 41.28 70.91C41.0746 70.7103 40.8242 70.5629 40.55 70.48C40.1305 70.3619 39.6956 70.308 39.26 70.32H37.34V74.06H39.22C39.8524 74.0929 40.4789 73.9249 41.01 73.58C41.2265 73.4234 41.4003 73.2151 41.5156 72.974C41.6309 72.7329 41.684 72.4669 41.67 72.2H41.71ZM60.28 76.8H56.64V67.1L51 76.8H47.57V62.08H51.22V70.84L56.43 62.08H60.28V76.79V76.8ZM69.61 77.08C68.6442 77.1273 67.6791 76.974 66.7756 76.6298C65.872 76.2856 65.0495 75.7579 64.36 75.08C63.6784 74.3154 63.1551 73.4233 62.8204 72.4552C62.4857 71.4872 62.3462 70.4623 62.41 69.44C62.3071 67.3968 63.0069 65.3944 64.36 63.86C65.0393 63.1603 65.8595 62.6131 66.7664 62.2545C67.6732 61.8959 68.6459 61.7341 69.62 61.78C70.1483 61.7799 70.676 61.8133 71.2 61.88C71.6521 61.9453 72.0996 62.0388 72.54 62.16C72.9129 62.2696 73.2773 62.4067 73.63 62.57C73.9716 62.697 74.3055 62.8439 74.63 63.01V66.53H74.26L73.59 65.96C73.31 65.75 73.01 65.53 72.67 65.32C72.3125 65.1024 71.9339 64.9215 71.54 64.78C70.6478 64.4602 69.6722 64.4602 68.78 64.78C68.2972 64.9719 67.8633 65.2691 67.51 65.65C67.1021 66.0845 66.7948 66.6034 66.61 67.17C66.1367 68.6532 66.1367 70.2469 66.61 71.73C66.83 72.2969 67.1713 72.8089 67.61 73.23C67.9715 73.589 68.4089 73.8623 68.89 74.03C69.3418 74.1952 69.819 74.2798 70.3 74.28C70.7738 74.2817 71.2442 74.2005 71.69 74.04C72.0779 73.9035 72.45 73.7258 72.8 73.51C73.1054 73.3258 73.3962 73.1185 73.67 72.89L74.33 72.34H74.66V75.79L73.73 76.22C73.3723 76.3769 73.0049 76.5105 72.63 76.62C72.2068 76.7526 71.7761 76.8595 71.34 76.94C70.7906 77.0222 70.2354 77.059 69.68 77.05L69.61 77.08ZM82.9 71.66H76.34V68.93H82.9V71.66ZM88.32 76.8V64.9H83.97V62.09H96.38V64.9H92.03V76.8H88.32Z" fill="#D2AB67"/>
<path fill-rule="evenodd" clip-rule="evenodd" d="M1.35 57.39C1.94539 55.1493 3.03998 53.0723 4.55181 51.3146C6.06364 49.5568 7.95354 48.1639 10.08 47.24C17.45 43.92 30.89 40.45 35.08 39.58C39.27 38.71 51.98 35.83 51.98 35.83L33.62 35.53C33.7977 34.2186 34.2339 32.9556 34.9034 31.8141C35.5729 30.6726 36.4623 29.6753 37.52 28.88L47.78 21.08L38.97 18.63L42.54 11.63C45.4581 11.9177 48.352 12.4123 51.2 13.11C54.69 14.11 59.06 18.23 59.06 18.23C55.82 25.43 53.06 25.04 47.66 29.72C47.66 29.72 56.17 32.28 58.81 33.19C61.0807 34.1855 63.2174 35.4622 65.17 36.99C65.17 36.99 62.61 37.9 60.96 38.64C59.31 39.38 38.82 45.16 38.82 45.16C38.82 45.16 58.64 44.67 60.71 44.42C62.78 44.17 78.8 43.76 83.1 44.5C87.4 45.24 89.79 45.74 91.69 46.73C93.0857 47.6724 94.2208 48.9519 94.99 50.45C94.99 50.45 78.06 49.38 74.99 49.45C71.92 49.52 56.73 50.94 47.73 52.09C38.73 53.24 16.73 56.47 14.52 56.72C12.31 56.97 1.34 57.4 1.34 57.4L1.35 57.39Z" fill="#D2AB67"/>
<path fill-rule="evenodd" clip-rule="evenodd" d="M22.91 25.66C24.1327 25.66 25.3279 26.0227 26.3444 26.7022C27.361 27.3817 28.1531 28.3475 28.6205 29.4773C29.088 30.6071 29.2098 31.8502 28.9705 33.0493C28.7312 34.2484 28.1416 35.3496 27.2764 36.2134C26.4111 37.0773 25.309 37.6651 24.1095 37.9025C22.91 38.1398 21.6671 38.016 20.5381 37.5467C19.409 37.0774 18.4445 36.2837 17.7666 35.2661C17.0888 34.2485 16.728 33.0527 16.73 31.83C16.73 31.0189 16.8899 30.2157 17.2006 29.4665C17.5113 28.7173 17.9667 28.0367 18.5407 27.4636C19.1147 26.8905 19.796 26.4363 20.5458 26.1268C21.2955 25.8173 22.0989 25.6587 22.91 25.66Z" fill="#D2AB67"/>
<path fill-rule="evenodd" clip-rule="evenodd" d="M54.26 0C55.4823 0 56.6771 0.362448 57.6934 1.04152C58.7097 1.72058 59.5018 2.68577 59.9696 3.81501C60.4373 4.94426 60.5597 6.18686 60.3213 7.38566C60.0828 8.58446 59.4942 9.68563 58.6299 10.5499C57.7656 11.4142 56.6645 12.0028 55.4657 12.2413C54.2669 12.4797 53.0243 12.3573 51.895 11.8896C50.7658 11.4218 49.8006 10.6297 49.1215 9.61342C48.4425 8.59713 48.08 7.40229 48.08 6.18C48.08 4.54096 48.7311 2.96905 49.8901 1.81008C51.0491 0.651103 52.621 0 54.26 0Z" fill="#D2AB67"/>
<path fill-rule="evenodd" clip-rule="evenodd" d="M75.4 21.86C77.1389 21.86 78.8388 22.3758 80.2845 23.3421C81.7302 24.3084 82.8568 25.6818 83.5218 27.2885C84.1868 28.8953 84.3603 30.6631 84.0204 32.3685C83.6804 34.0739 82.8422 35.6401 81.6119 36.869C80.3816 38.0979 78.8144 38.9343 77.1087 39.2723C75.4029 39.6103 73.6353 39.4348 72.0293 38.768C70.4233 38.1012 69.0512 36.973 68.0865 35.5262C67.1219 34.0793 66.608 32.3789 66.61 30.64C66.6126 28.3105 67.5399 26.0773 69.1881 24.431C70.8362 22.7847 73.0705 21.86 75.4 21.86Z" fill="#D2AB67"/>
</g>
<defs>
<clipPath id="clip0_203_6">
<rect width="96.33" height="77.09" fill="white"/>
</clipPath>
</defs>
</svg>
