<svg width="40" height="25" viewBox="0 0 40 25" fill="none" xmlns="http://www.w3.org/2000/svg">
<g clip-path="url(#clip0_205_4)">
<path d="M39.9913 0.735294C40.0029 0.669551 40.0029 0.602508 39.9913 0.536764L39.9433 0.455882C39.9209 0.402512 39.8853 0.354676 39.8393 0.316177C39.8216 0.288976 39.7969 0.266236 39.7673 0.25C39.7221 0.209357 39.671 0.174709 39.6154 0.147059H39.5274C39.4295 0.0744442 39.3145 0.0240616 39.1915 0H0.801479C0.705567 0.00158459 0.610748 0.0190189 0.521552 0.0514704H0.433575C0.377961 0.0791206 0.326815 0.113769 0.281614 0.154412C0.253744 0.172593 0.22941 0.194966 0.209633 0.220588C0.165334 0.260429 0.130003 0.3079 0.10566 0.360294L0.0576729 0.441177C0.0131279 0.533531 -0.00609571 0.634521 0.00168731 0.735294V24.2647C0.00168731 24.4597 0.085951 24.6467 0.235941 24.7846C0.385931 24.9225 0.589361 25 0.801479 25H39.1915C39.4036 25 39.607 24.9225 39.757 24.7846C39.907 24.6467 39.9913 24.4597 39.9913 24.2647V0.735294ZM36.6801 1.47059L19.9965 12.3309L3.31282 1.47059H36.6801ZM1.60127 23.5294V2.15441L19.5326 13.8382C19.6681 13.9269 19.8302 13.9745 19.9965 13.9745C20.1628 13.9745 20.3249 13.9269 20.4604 13.8382L38.3917 2.15441V23.5294H1.60127Z" fill="white"/>
</g>
<defs>
<clipPath id="clip0_205_4">
<rect width="40" height="25" fill="white"/>
</clipPath>
</defs>
</svg>
