<svg width="40.000000" height="40.000000" viewBox="0 0 40 40" fill="none" xmlns="http://www.w3.org/2000/svg" xmlns:xlink="http://www.w3.org/1999/xlink">
	<defs>
		<clipPath id="clip3_646">
			<rect id="yes-svgrepo-com" width="40.000000" height="40.000000" fill="white" fill-opacity="0"/>
		</clipPath>
	</defs>
	<g clip-path="url(#clip3_646)">
		<path id="path" d="M18.33 26.66C17.83 26.66 17.5 26.5 17.16 26.16C16.5 25.5 16.5 24.5 17.16 23.83L27.16 13.83C27.83 13.16 28.83 13.16 29.5 13.83C30.16 14.5 30.16 15.5 29.5 16.16L19.5 26.16C19.16 26.5 18.83 26.66 18.33 26.66Z" fill="#3ACC97" fill-opacity="1.000000" fill-rule="nonzero"/>
		<path id="path" d="M20 40C9 40 0 31 0 20C0 9 9 0 20 0C31 0 40 9 40 20C40 31 31 40 20 40ZM20 3.33C10.83 3.33 3.33 10.83 3.33 20C3.33 29.16 10.83 36.66 20 36.66C29.16 36.66 36.66 29.16 36.66 20C36.66 10.83 29.16 3.33 20 3.33Z" fill="#3ACC97" fill-opacity="1.000000" fill-rule="nonzero"/>
		<path id="path" d="M18.33 26.66C17.83 26.66 17.5 26.5 17.16 26.16L12.16 21.16C11.5 20.5 11.5 19.5 12.16 18.83C12.83 18.16 13.83 18.16 14.5 18.83L19.5 23.83C20.16 24.5 20.16 25.5 19.5 26.16C19.16 26.5 18.83 26.66 18.33 26.66Z" fill="#3ACC97" fill-opacity="1.000000" fill-rule="nonzero"/>
	</g>
</svg>